Inverse Dynamics Generalized Forces
version=1
nRows=6
nColumns=34
inDegrees=no
endheader 
time	pelvis_tilt_moment	pelvis_list_moment	pelvis_rotation_moment	pelvis_tx_force	pelvis_ty_force	pelvis_tz_force	hip_flexion_l_moment	hip_adduction_l_moment	hip_rotation_l_moment	hip_flexion_r_moment	hip_adduction_r_moment	hip_rotation_r_moment	knee_angle_l_moment	knee_angle_r_moment	ankle_angle_l_moment	ankle_angle_r_moment	subtalar_angle_l_moment	subtalar_angle_r_moment	mtp_angle_l_moment	mtp_angle_r_moment	lumbar_extension_moment	lumbar_bending_moment	lumbar_rotation_moment	arm_flex_l_moment	arm_add_l_moment	arm_rot_l_moment	arm_flex_r_moment	arm_add_r_moment	arm_rot_r_moment	elbow_flex_l_moment	elbow_flex_r_moment	pro_sup_l_moment	pro_sup_r_moment	
          6.59081634	          0.00000000	         -0.00000000	         -0.00000000	         -0.00000000	         -0.00000000	         -0.00000000	        -26.41667238	         23.52360812	         12.20499656	        100.85866116	         10.71348081	         -1.30338538	         30.36757495	         -9.44467438	         -1.36477110	          5.64190788	          0.17642702	         -0.87951620	          0.07833142	         -0.44074571	       -134.25244146	        -75.88010608	        -16.69711325	        109.68613056	        -52.79087835	         14.94928735	        -47.54093578	         75.37756624	        -35.82193462	        -12.37562717	         -1.71010892	         -0.77288338	         -1.34444976	
          6.60085036	          0.00000000	         -0.00000000	         -0.00000000	         -0.00000000	         -0.00000000	         -0.00000000	         27.52403354	         13.14429296	          6.41995088	        110.97714198	         35.75312462	          0.35003952	         25.75437839	          0.28582874	         -0.20656444	          9.13419190	          1.05911508	          0.28951895	          0.04686043	         -1.06608127	       -175.56237390	       -131.74179888	          1.00899596	         83.67045948	        -18.12903191	          8.17493345	          2.20618962	         18.86302627	        -31.16044674	         -5.56726992	         -1.81110864	         -0.89574445	         -0.85485890	
          6.61088437	          0.00000000	         -0.00000000	         -0.00000000	          0.00000000	         -0.00000000	         -0.00000000	         66.82949313	          5.02556869	          3.79547536	        147.09912678	         49.88091739	         -1.05120547	         12.55818542	        -30.27759777	          3.42508554	         12.36433034	         -0.59260020	         -0.72079785	         -0.11683559	         -1.21552696	       -197.35296493	       -163.28617645	        -24.16512780	        100.20149349	        -19.21145136	         14.04117105	          9.16612285	        -23.38621706	          9.21639192	          3.92977961	         -8.43771723	          0.87512261	          0.92729277	
          6.62091839	         -0.00000000	          0.00000000	         -0.00000000	         -0.00000000	          0.00000000	          0.00000000	         48.57046414	          3.14854950	          1.55232957	        174.08583210	         25.65283634	         -3.51197613	         11.90891398	        -72.49513351	          8.53330807	         10.24183769	          0.30578843	         -1.88727520	         -0.49237802	         -0.54711532	       -170.73337758	       -126.18354499	        -80.64906855	        112.20126332	        -14.71958323	         22.57031445	        -26.71672710	        -46.74070715	         44.53719447	          8.36126620	         -5.80479898	          1.40891706	          1.60479884	
          6.63095240	         -0.00000001	          0.00000000	          0.00000000	         -0.00000001	          0.00000000	          0.00000000	         52.14698532	        -16.84975985	          3.05329471	        201.88592298	          5.60096481	         -5.88056523	        -23.43295388	       -115.61215403	         22.85590014	          9.54245663	         19.59489403	         -2.28290417	         -7.34351998	         -0.21760531	       -168.91007852	       -126.38775633	       -111.48110915	        120.98565653	         -4.75405857	         31.88499663	        -57.28677714	        -37.65722506	         58.51154769	         17.56313976	         -5.22979955	          1.29759904	          1.93661383	
          6.64098641	         -0.00000001	          0.00000001	          0.00000000	         -0.00000001	          0.00000001	          0.00000000	         52.84187481	        -48.65160445	         11.79874552	        210.13208828	        -14.63489321	         -5.15724885	       -119.06630700	       -132.82046503	         21.63490780	         13.12546189	         20.43168839	         -4.41506506	        -16.74095123	         -0.42242000	       -152.00001030	        -79.77091728	       -103.34439383	        127.50431316	         23.12825723	         44.02599630	        -53.65374281	          9.32875489	         20.56548197	         29.08244344	         -8.27177108	          1.76767546	          0.91107608	
